<svg width="139" height="50" viewBox="0 0 139 50" fill="none" xmlns="http://www.w3.org/2000/svg">
<path d="M10.176 17.024V38H3.456V17.024H10.176ZM3.312 9.584C3.312 8.624 3.68 7.824 4.416 7.184C5.184 6.512 6.048 6.176 7.008 6.176C7.936 6.176 8.768 6.512 9.504 7.184C10.24 7.824 10.608 8.624 10.608 9.584C10.608 10.544 10.24 11.344 9.504 11.984C8.768 12.624 7.936 12.944 7.008 12.944C6.048 12.944 5.184 12.624 4.416 11.984C3.68 11.344 3.312 10.544 3.312 9.584ZM35.5286 16.016C37.5126 16.016 39.1606 16.608 40.4726 17.792C41.8166 18.976 42.5046 20.48 42.5366 22.304V38H35.8166V24.8C35.7206 22.752 34.6966 21.728 32.7446 21.728C31.2086 21.728 29.9766 22.448 29.0486 23.888C28.1206 25.328 27.6566 27.184 27.6566 29.456V38H20.9366V17.024H27.0326L27.5126 20.384C28.2806 19.008 29.3366 17.936 30.6806 17.168C32.0566 16.4 33.6726 16.016 35.5286 16.016ZM76.3166 0.127998V38H69.5966V35.792C67.1646 37.648 64.5726 38.576 61.8206 38.576C59.8686 38.576 58.1246 38.112 56.5886 37.184C55.0526 36.256 53.8366 34.928 52.9406 33.2C52.0766 31.472 51.6446 29.44 51.6446 27.104C51.6446 24.8 52.1086 22.816 53.0366 21.152C53.9966 19.456 55.3086 18.176 56.9726 17.312C58.6366 16.416 60.5406 15.968 62.6846 15.968C64.0606 15.968 65.3566 16.192 66.5726 16.64C67.7886 17.056 68.8126 17.68 69.6446 18.512V0.127998H76.3166ZM64.0286 32.912C65.3726 32.912 66.4926 32.656 67.3886 32.144C68.2846 31.6 69.0206 30.8 69.5966 29.744V24.608C69.2126 23.584 68.5246 22.768 67.5326 22.16C66.5406 21.552 65.3726 21.248 64.0286 21.248C62.5246 21.248 61.2126 21.792 60.0926 22.88C59.0046 23.968 58.4606 25.344 58.4606 27.008C58.4606 28.096 58.7166 29.104 59.2286 30.032C59.7406 30.928 60.4126 31.632 61.2446 32.144C62.1086 32.656 63.0366 32.912 64.0286 32.912ZM97.5337 32.864C98.8777 32.864 100.27 32.4 101.71 31.472L104.686 36.464C103.534 37.104 102.318 37.616 101.038 38C99.7577 38.384 98.5417 38.576 97.3897 38.576C94.8937 38.576 92.7337 38.112 90.9097 37.184C89.1177 36.224 87.7577 34.896 86.8297 33.2C85.9017 31.472 85.4377 29.504 85.4377 27.296C85.4377 25.248 85.9657 23.36 87.0217 21.632C88.1097 19.904 89.5817 18.544 91.4377 17.552C93.2937 16.528 95.3257 16.016 97.5337 16.016C100.542 16.016 103.006 16.896 104.926 18.656C106.878 20.416 108.142 22.928 108.718 26.192L93.3577 31.088C94.3817 32.272 95.7737 32.864 97.5337 32.864ZM97.0057 21.248C95.5017 21.248 94.3017 21.76 93.4057 22.784C92.5097 23.808 92.0617 25.184 92.0617 26.912V27.344L101.278 24.224C100.606 22.24 99.1817 21.248 97.0057 21.248ZM129.938 38L125.09 31.712L120.674 38H114.002L121.778 27.44L113.762 17.024H122.018L126.626 23.072L130.226 17.024H136.898L129.698 27.056L138.05 38H129.938Z" fill="black"/>
<rect x="12" y="6" width="56" height="7" fill="black"/>
<rect x="78" y="6" width="59" height="7" fill="black"/>
</svg>
